<?xml version="1.0" encoding="UTF-8" standalone="no"?>
<!-- Created with Inkscape (http://www.inkscape.org/) -->

<svg
   xmlns:dc="http://purl.org/dc/elements/1.1/"
   xmlns:cc="http://creativecommons.org/ns#"
   xmlns:rdf="http://www.w3.org/1999/02/22-rdf-syntax-ns#"
   xmlns:svg="http://www.w3.org/2000/svg"
   xmlns="http://www.w3.org/2000/svg"
   xmlns:sodipodi="http://sodipodi.sourceforge.net/DTD/sodipodi-0.dtd"
   xmlns:inkscape="http://www.inkscape.org/namespaces/inkscape"
   width="240mm"
   height="200mm"
   viewBox="0 0 240 200"
   version="1.1"
   id="svg8"
   inkscape:version="0.92.5 (2060ec1f9f, 2020-04-08)"
   sodipodi:docname="envconfig.svg">
  <defs
     id="defs2" />
  <sodipodi:namedview
     id="base"
     pagecolor="#ffffff"
     bordercolor="#666666"
     borderopacity="1.0"
     inkscape:pageopacity="0.0"
     inkscape:pageshadow="2"
     inkscape:zoom="0.7"
     inkscape:cx="411.26513"
     inkscape:cy="354.83546"
     inkscape:document-units="mm"
     inkscape:current-layer="layer1"
     showgrid="false"
     inkscape:snap-nodes="false"
     inkscape:snap-others="false"
     inkscape:window-width="1848"
     inkscape:window-height="1016"
     inkscape:window-x="72"
     inkscape:window-y="27"
     inkscape:window-maximized="1"
     units="mm" />
  <metadata
     id="metadata5">
    <rdf:RDF>
      <cc:Work
         rdf:about="">
        <dc:format>image/svg+xml</dc:format>
        <dc:type
           rdf:resource="http://purl.org/dc/dcmitype/StillImage" />
        <dc:title></dc:title>
      </cc:Work>
    </rdf:RDF>
  </metadata>
  <g
     inkscape:label="Layer 1"
     inkscape:groupmode="layer"
     id="layer1"
     transform="translate(0,-97)">
    <path
       style="fill:#000300;fill-opacity:1;stroke:none;stroke-width:1.36986637;stroke-miterlimit:4;stroke-dasharray:none;stroke-dashoffset:0;stroke-opacity:1"
       d="m 113.92304,100.92361 -6.5877,10.16399 a 87.137401,87.137401 0 0 0 -3.25067,-0.16267 87.137401,87.137401 0 0 0 -5.387103,0.19122 l -6.747681,-9.80865 a 97.388858,97.388858 0 0 0 -9.829872,1.75276 l -2.879733,11.55005 a 87.137401,87.137401 0 0 0 -8.258333,2.92079 l -9.640158,-7.14127 a 97.388858,97.388858 0 0 0 -8.60804,4.75991 l 1.030696,11.90544 a 87.137401,87.137401 0 0 0 -7.01668,5.53577 L 35.31096,128.96789 a 97.388858,97.388858 0 0 0 -6.504162,7.17935 l 4.795297,10.82518 a 87.137401,87.137401 0 0 0 -5.054394,7.79253 l -11.799238,0.28032 a 97.388858,97.388858 0 0 0 -3.780175,8.79068 l 7.867574,8.48344 a 87.137401,87.137401 0 0 0 -2.304916,9.44491 L 7.5500384,185.82905 A 97.388858,97.388858 0 0 0 6.854877,195.1563 l 10.18241,5.46215 a 87.137401,87.137401 0 0 0 0.903273,9.9913 l -8.99455,7.35219 a 97.388858,97.388858 0 0 0 2.319078,8.8912 l 11.290972,1.84056 a 87.137401,87.137401 0 0 0 4.224729,9.51273 l -6.041197,9.74774 a 97.388858,97.388858 0 0 0 5.017585,7.50797 l 11.228673,-1.91698 a 87.137401,87.137401 0 0 0 7.274366,7.726 l -2.569677,11.27115 a 97.388858,97.388858 0 0 0 7.039339,5.3517 l 10.0833,-5.50459 a 87.137401,87.137401 0 0 0 9.519814,5.05298 l 1.207676,11.29519 a 97.388858,97.388858 0 0 0 8.416903,2.78489 l 7.639639,-8.3603 a 87.137401,87.137401 0 0 0 10.764299,1.65083 l 4.785391,10.23905 a 97.388858,97.388858 0 0 0 2.96326,0.14889 97.388858,97.388858 0 0 0 5.87696,-0.20822 l 4.57444,-10.53498 a 87.137401,87.137401 0 0 0 10.58308,-1.92829 l 7.88881,8.16915 a 97.388858,97.388858 0 0 0 8.407,-3.02982 l 0.90186,-11.38157 a 87.137401,87.137401 0 0 0 9.27487,-5.22429 l 10.07907,5.14782 a 97.388858,97.388858 0 0 0 7.05492,-5.71415 l -2.85708,-11.10694 a 87.137401,87.137401 0 0 0 6.79155,-7.76277 l 6.26917,0.89195 -16.09903,-16.43882 c -1.46915,0.25836 -2.95338,0.38395 -4.43993,0.40916 a 66.634477,66.634477 0 0 1 -54.33118,28.20811 66.634477,66.634477 0 0 1 -66.634442,-66.63583 66.634477,66.634477 0 0 1 66.634442,-66.63447 66.634477,66.634477 0 0 1 64.90294,52.00929 c 2.10206,1.34435 4.07601,2.94045 5.86987,4.76838 h 0.006 c 7.84633,8.02099 10.97097,19.268 8.28378,29.33956 l 7.89735,8.06576 6.68253,-1.27986 a 97.388858,97.388858 0 0 0 2.13079,-9.15454 l -9.26072,-7.15402 a 87.137401,87.137401 0 0 0 0.6102,-9.64439 l 10.10734,-5.78635 a 97.388858,97.388858 0 0 0 -1.01084,-9.50991 l -11.24428,-3.81414 a 87.137401,87.137401 0 0 0 -2.46204,-8.87565 l 7.81804,-8.90959 a 97.388858,97.388858 0 0 0 -4.07609,-8.82891 l -11.94649,0.0437 a 87.137401,87.137401 0 0 0 -5.0459,-7.39469 l 4.49091,-10.9413 a 97.388858,97.388858 0 0 0 -6.84678,-7.17805 l -11.21452,3.89623 a 87.137401,87.137401 0 0 0 -7.03369,-5.26817 l 0.698,-11.84736 a 97.388858,97.388858 0 0 0 -8.8558,-4.61974 l -9.4462,7.40884 a 87.137401,87.137401 0 0 0 -8.15924,-2.66452 l -3.24925,-11.6534 a 97.388858,97.388858 0 0 0 -9.80722,-1.51067 z m -60.867902,77.66916 -1.826378,13.97389 9.930395,1.29687 0.355363,-2.72258 -6.327197,-0.82682 0.41908,-3.20111 5.755209,0.75179 0.356781,-2.72258 -5.756628,-0.75321 0.341209,-2.60223 6.120489,0.80134 0.355362,-2.72396 z m 101.838212,2.93212 v 0.001 c -0.0165,0.31652 -0.0345,0.64655 -0.0537,0.94715 l 10.0649,10.28436 c 4.82858,4.93095 4.74398,12.8505 -0.18684,17.67903 l -6.84393,6.69954 c -4.93078,4.82851 -12.84631,4.74953 -17.67481,-0.18138 l -10.07056,-10.28392 c -0.29895,0.0138 -0.62681,0.0177 -0.9415,0.0311 0.52197,6.58783 3.2634,13.13002 8.20878,18.1944 6.97364,7.10594 16.80594,10.29688 25.7321,8.4438 l 0.73337,-0.15558 35.44022,36.18919 0.006,0.55073 c 0.0707,4.82447 2.14029,9.66962 5.73682,13.34669 7.25057,7.40476 18.374,8.04177 24.88121,1.66924 6.50557,-6.37151 6.09789,-17.50569 -1.14966,-24.9095 -3.59981,-3.66472 -8.39082,-5.82721 -13.20652,-5.99873 l -0.55074,-0.0219 -34.86259,-35.60019 0.23507,-0.77587 c 2.79659,-9.23237 -0.0679,-19.92581 -7.48532,-27.51035 -4.95741,-5.05151 -11.43858,-7.93406 -18.01175,-8.59951 z m -89.350894,2.25109 -1.370486,10.48255 3.351183,0.43749 0.673923,-5.15634 c 0.124799,-0.95464 0.421077,-1.6747 0.890538,-2.15908 0.470272,-0.49061 1.055362,-0.69023 1.75417,-0.59889 0.287007,0.0376 0.53499,0.13313 0.743292,0.28743 0.209124,0.1479 0.364726,0.33928 0.467212,0.5748 0.07864,0.17527 0.113613,0.43771 0.106188,0.78576 -0.0012,0.34889 -0.06014,0.97547 -0.178385,1.88018 l -0.502609,3.84671 -0.135926,1.03778 3.369598,0.44175 0.833903,-6.38383 c 0.185121,-1.41634 0.01063,-2.53626 -0.522427,-3.36111 -0.526886,-0.82402 -1.394634,-1.31562 -2.605067,-1.47384 -0.68633,-0.0896 -1.33353,-0.0248 -1.939644,0.19398 -0.605298,0.21289 -1.200001,0.59151 -1.78532,1.1369 l 0.20104,-1.53471 z m 12.325926,1.61118 2.748055,11.02054 3.67824,0.47998 5.49754,-9.94172 -3.361103,-0.4389 -3.547984,6.9034 -1.664979,-7.58583 z m 17.744165,2.15485 c -1.287321,0.0157 -2.377695,0.33873 -3.273318,0.96414 -1.193345,0.82765 -1.903445,2.10567 -2.129355,3.83397 -0.225919,1.7283 0.130628,3.14877 1.070341,4.26155 0.940511,1.10655 2.356863,1.78314 4.247391,2.03026 0.54281,0.0711 1.08844,0.092 1.638072,0.062 0.555061,-0.0219 1.107092,-0.0959 1.656482,-0.22081 l 0.358199,-2.74239 c -0.439284,0.25342 -0.905645,0.42702 -1.400221,0.52102 -0.488345,0.0947 -0.995049,0.10812 -1.519156,0.0396 -0.935904,-0.1223 -1.629483,-0.48874 -2.082634,-1.10007 -0.446092,-0.61673 -0.60517,-1.41596 -0.477127,-2.3955 0.128068,-0.97959 0.485769,-1.70662 1.074595,-2.18175 0.595875,-0.48057 1.361935,-0.65893 2.297837,-0.5366 0.49291,0.0644 0.957243,0.20145 1.39314,0.41058 0.442137,0.21013 0.87085,0.50063 1.285546,0.87213 l 0.356781,-2.73248 c -0.505065,-0.26275 -1.020288,-0.47619 -1.544635,-0.63995 -0.517293,-0.16897 -1.049368,-0.28924 -1.598432,-0.36102 -0.472634,-0.0616 -0.924392,-0.0906 -1.353506,-0.0851 z m 38.188263,1.05759 c -0.88384,-0.01 -1.59113,0.15893 -2.12227,0.50829 -0.70737,0.45961 -1.1363,1.26079 -1.28555,2.4026 l -0.0948,0.72914 -1.64799,-0.21535 -0.31289,2.39692 1.64657,0.21507 -1.05618,8.08561 3.37809,0.44173 1.0576,-8.08561 3.79008,0.49556 -1.0576,8.08558 3.37951,0.44173 1.37049,-10.48255 -7.16959,-0.93724 0.0948,-0.72914 c 0.0555,-0.42426 0.18496,-0.70893 0.38792,-0.85372 0.20378,-0.15086 0.5401,-0.19576 1.00805,-0.13451 l 1.85328,0.24219 0.2874,-2.20014 -2.56542,-0.33414 c -0.3338,-0.0435 -0.64689,-0.0685 -0.94151,-0.0725 z m -27.03038,0.40065 c -1.23351,0.0246 -2.28161,0.35145 -3.14447,0.98118 -1.14424,0.84037 -1.82922,2.1218 -2.05432,3.84387 -0.2251,1.72208 0.10694,3.13688 0.99672,4.24313 0.89602,1.10713 2.24967,1.77819 4.05908,2.01467 1.80316,0.23564 3.27362,-0.0662 4.41162,-0.90749 1.14424,-0.84042 1.8278,-2.12186 2.0529,-3.84391 0.2251,-1.72206 -0.10694,-3.13684 -0.99672,-4.24313 -0.88354,-1.10545 -2.22618,-1.77614 -4.02935,-2.01185 -0.45235,-0.0593 -0.88429,-0.0847 -1.29546,-0.0764 z m 31.22963,0.0961 -0.35678,2.7325 3.37809,0.44173 0.35679,-2.7325 z m -21.78768,1.30254 -1.37049,10.48255 3.35119,0.4375 0.67392,-5.15635 c 0.1248,-0.95461 0.42108,-1.67471 0.89054,-2.15908 0.47027,-0.49063 1.05536,-0.69022 1.75416,-0.59886 0.28702,0.0376 0.53499,0.13313 0.7433,0.28739 0.20912,0.1479 0.36472,0.3393 0.46721,0.57482 0.0786,0.17547 0.11361,0.43769 0.10619,0.78576 -0.001,0.34885 -0.0601,0.97547 -0.17839,1.88016 l -0.50261,3.84673 -0.13592,1.0392 3.36818,0.44031 0.83532,-6.38384 c 0.18512,-1.41633 0.0106,-2.53625 -0.52243,-3.36108 -0.52689,-0.82405 -1.39605,-1.31564 -2.60649,-1.47386 -0.68632,-0.0896 -1.33211,-0.0246 -1.93822,0.19398 -0.60529,0.21287 -1.2,0.59148 -1.78532,1.13686 l 0.19961,-1.53471 z m -8.99031,1.05618 c 0.16817,-0.01 0.34389,-0.006 0.52951,0.0177 0.73,0.0953 1.25342,0.43647 1.57012,1.02364 0.31751,0.58089 0.41163,1.37399 0.28033,2.37851 -0.13132,1.00456 -0.42648,1.74953 -0.88346,2.23557 -0.45617,0.47978 -1.04824,0.67164 -1.77824,0.57622 -0.74248,-0.0971 -1.2761,-0.43625 -1.59985,-1.01799 -0.3167,-0.58711 -0.4088,-1.38387 -0.2775,-2.38843 0.13132,-1.00452 0.42447,-1.74583 0.88063,-2.22563 0.34741,-0.36388 0.77396,-0.56391 1.27846,-0.60028 z m 40.07836,2.79337 c -1.0851,-0.0301 -2.05025,0.34648 -2.89672,1.12979 -0.96655,0.88902 -1.5523,2.11641 -1.75699,3.68249 -0.20385,1.55984 0.0463,2.90081 0.75036,4.02087 0.70477,1.1138 1.69693,1.75402 2.97601,1.92124 0.73,0.0953 1.39071,0.0358 1.98354,-0.17843 0.59279,-0.2145 1.16013,-0.59711 1.70178,-1.1482 l -0.0934,0.72063 c -0.1337,1.02325 -0.48882,1.74128 -1.06326,2.15485 -0.57441,0.41355 -1.41066,0.54847 -2.5088,0.4049 -0.56778,-0.0742 -1.12121,-0.23233 -1.66072,-0.47428 -0.54033,-0.23562 -1.08145,-0.56049 -1.62392,-0.97407 l -0.3412,2.61215 c 0.59077,0.28662 1.18548,0.51962 1.78389,0.6994 0.59841,0.17981 1.22504,0.31219 1.8802,0.39786 2.02154,0.26409 3.6208,0.0177 4.79812,-0.7348 1.18274,-0.74653 1.88367,-1.96108 2.10387,-3.6457 l 1.23175,-9.42494 -3.3682,-0.44031 -0.20384,1.55309 c -0.38096,-0.67802 -0.83006,-1.19634 -1.34784,-1.55594 -0.51778,-0.35959 -1.14168,-0.58697 -1.87168,-0.68241 -0.16001,-0.0219 -0.31786,-0.0341 -0.47288,-0.0382 z m 0.90469,2.59942 c 0.1581,-0.01 0.32381,-0.008 0.49696,0.0157 0.69879,0.0912 1.20907,0.41897 1.52904,0.98116 0.31997,0.5622 0.41825,1.31095 0.29589,2.2469 -0.12164,0.92964 -0.40849,1.62437 -0.86219,2.08544 -0.45373,0.46105 -1.03132,0.64633 -1.73012,0.55499 -0.71753,-0.0937 -1.23043,-0.41099 -1.54038,-0.95284 -0.30912,-0.54807 -0.40167,-1.30299 -0.27608,-2.26387 0.12247,-0.93588 0.41134,-1.63428 0.86504,-2.09537 0.3403,-0.34578 0.74721,-0.53644 1.22184,-0.57197 z m 68.52455,66.48858 c 2.31887,0.0248 4.62969,0.92866 6.37249,2.70842 3.48583,3.55944 3.4259,9.31398 -0.13313,12.80022 -3.55995,3.48624 -9.31422,3.42564 -12.80023,-0.13451 -3.4863,-3.55995 -3.42564,-9.31424 0.13451,-12.80024 1.78004,-1.74258 4.10742,-2.59857 6.42632,-2.57391 z"
       id="path817"
       inkscape:connector-curvature="0" />
  </g>
</svg>
