<?xml version="1.0" encoding="UTF-8" standalone="no"?>
<!-- Created with Inkscape (http://www.inkscape.org/) -->

<svg
   xmlns:dc="http://purl.org/dc/elements/1.1/"
   xmlns:cc="http://creativecommons.org/ns#"
   xmlns:rdf="http://www.w3.org/1999/02/22-rdf-syntax-ns#"
   xmlns:svg="http://www.w3.org/2000/svg"
   xmlns="http://www.w3.org/2000/svg"
   xmlns:sodipodi="http://sodipodi.sourceforge.net/DTD/sodipodi-0.dtd"
   xmlns:inkscape="http://www.inkscape.org/namespaces/inkscape"
   width="120mm"
   height="100mm"
   viewBox="0 0 120 100"
   version="1.1"
   id="svg8"
   inkscape:version="0.92.5 (2060ec1f9f, 2020-04-08)"
   sodipodi:docname="envconfig.svg">
  <defs
     id="defs2" />
  <sodipodi:namedview
     id="base"
     pagecolor="#ffffff"
     bordercolor="#666666"
     borderopacity="1.0"
     inkscape:pageopacity="0.0"
     inkscape:pageshadow="2"
     inkscape:zoom="0.7"
     inkscape:cx="411.26513"
     inkscape:cy="354.83546"
     inkscape:document-units="mm"
     inkscape:current-layer="layer1"
     showgrid="false"
     inkscape:snap-nodes="false"
     inkscape:snap-others="false"
     inkscape:window-width="1848"
     inkscape:window-height="1016"
     inkscape:window-x="72"
     inkscape:window-y="27"
     inkscape:window-maximized="1"
     units="mm" />
  <metadata
     id="metadata5">
    <rdf:RDF>
      <cc:Work
         rdf:about="">
        <dc:format>image/svg+xml</dc:format>
        <dc:type
           rdf:resource="http://purl.org/dc/dcmitype/StillImage" />
        <dc:title></dc:title>
      </cc:Work>
    </rdf:RDF>
  </metadata>
  <g
     inkscape:label="Layer 1"
     inkscape:groupmode="layer"
     id="layer1"
     transform="translate(0,-197)">
    <path
       style="fill:#000300;fill-opacity:1;stroke:none;stroke-width:0.69558555;stroke-miterlimit:4;stroke-dasharray:none;stroke-dashoffset:0;stroke-opacity:1"
       d="m 56.68583,197.68547 -3.345077,5.16103 a 44.246299,44.246299 0 0 0 -1.650614,-0.0826 44.246299,44.246299 0 0 0 -2.735443,0.0971 l -3.426312,-4.9806 a 49.451745,49.451745 0 0 0 -4.991375,0.89001 l -1.46226,5.86484 a 44.246299,44.246299 0 0 0 -4.193385,1.48311 l -4.895043,-3.62617 a 49.451745,49.451745 0 0 0 -4.370958,2.41697 l 0.523363,6.0453 a 44.246299,44.246299 0 0 0 -3.562903,2.81093 l -5.807338,-1.8397 a 49.451745,49.451745 0 0 0 -3.302659,3.6455 l 2.434938,5.49677 a 44.246299,44.246299 0 0 0 -2.566501,3.95686 l -5.9913728,0.14234 a 49.451745,49.451745 0 0 0 -1.9194826,4.4637 l 3.994967,4.30769 a 44.246299,44.246299 0 0 0 -1.1703817,4.7959 l -5.5758438,2.06398 a 49.451745,49.451745 0 0 0 -0.3529864,4.73616 l 5.1703855,2.77355 a 44.246299,44.246299 0 0 0 0.4586605,5.07334 l -4.5672184,3.73327 a 49.451745,49.451745 0 0 0 1.1775727,4.51474 l 5.733287,0.93459 a 44.246299,44.246299 0 0 0 2.145217,4.83034 l -3.0675764,4.94967 a 49.451745,49.451745 0 0 0 2.5478104,3.81237 l 5.701653,-0.9734 a 44.246299,44.246299 0 0 0 3.69375,3.92308 l -1.304821,5.72322 a 49.451745,49.451745 0 0 0 3.574409,2.71747 l 5.12006,-2.7951 a 44.246299,44.246299 0 0 0 4.833935,2.56578 l 0.613229,5.73543 a 49.451745,49.451745 0 0 0 4.273903,1.4141 l 3.879227,-4.24516 a 44.246299,44.246299 0 0 0 5.465855,0.83825 l 2.429906,5.19915 a 49.451745,49.451745 0 0 0 1.504675,0.0756 49.451745,49.451745 0 0 0 2.984184,-0.10573 l 2.322791,-5.34941 a 44.246299,44.246299 0 0 0 5.373835,-0.97914 l 4.005752,4.1481 a 49.451745,49.451745 0 0 0 4.268873,-1.53847 l 0.457942,-5.77929 a 44.246299,44.246299 0 0 0 4.709559,-2.65277 l 5.11791,2.61394 a 49.451745,49.451745 0 0 0 3.582322,-2.90151 l -1.450756,-5.63984 a 44.246299,44.246299 0 0 0 3.448588,-3.94175 l 3.183333,0.45291 -8.174701,-8.34724 c -0.746002,0.13119 -1.499656,0.19496 -2.254491,0.20776 a 33.835402,33.835402 0 0 1 -27.588084,14.32341 33.835402,33.835402 0 0 1 -33.835385,-33.83609 33.835402,33.835402 0 0 1 33.835385,-33.8354 33.835402,33.835402 0 0 1 32.956168,26.40908 c 1.067377,0.68263 2.069701,1.49309 2.980584,2.42127 h 0.0028 c 3.984182,4.07287 5.570797,9.78383 4.206309,14.89793 l 4.010086,4.0956 3.393229,-0.64988 a 49.451745,49.451745 0 0 0 1.081965,-4.64846 l -4.702373,-3.63264 a 44.246299,44.246299 0 0 0 0.309843,-4.89719 l 5.13227,-2.93817 a 49.451745,49.451745 0 0 0 -0.51328,-4.82891 l -5.70958,-1.93673 a 44.246299,44.246299 0 0 0 -1.250165,-4.50684 l 3.969813,-4.52408 a 49.451745,49.451745 0 0 0 -2.06974,-4.48311 l -6.066145,0.0222 a 44.246299,44.246299 0 0 0 -2.562189,-3.75485 l 2.28038,-5.55573 a 49.451745,49.451745 0 0 0 -3.476634,-3.64484 l -5.694467,1.97841 a 44.246299,44.246299 0 0 0 -3.571539,-2.67505 l 0.354428,-6.01581 a 49.451745,49.451745 0 0 0 -4.496766,-2.34579 l -4.796555,3.76203 a 44.246299,44.246299 0 0 0 -4.143065,-1.35298 l -1.649895,-5.91732 a 49.451745,49.451745 0 0 0 -4.979871,-0.76708 z m -30.907274,39.43855 -0.927391,7.09561 5.042418,0.65852 0.180445,-1.38246 -3.2128,-0.41984 0.212799,-1.62545 2.922358,0.38174 0.181165,-1.38246 -2.923079,-0.38246 0.173258,-1.32135 3.107839,0.4069 0.180444,-1.38316 z m 51.711024,1.48886 v 7.2e-4 c -0.0084,0.16072 -0.01753,0.3283 -0.02727,0.48094 l 5.110717,5.22215 c 2.451841,2.50382 2.408882,6.52518 -0.09487,8.97699 l -3.475187,3.40187 c -2.503732,2.4518 -6.523048,2.4117 -8.974846,-0.0921 l -5.11359,-5.22214 c -0.151801,0.007 -0.318279,0.009 -0.478075,0.0158 0.265044,3.34514 1.657078,6.66711 4.168227,9.23868 3.541049,3.60823 8.533656,5.22851 13.066147,4.28756 l 0.372389,-0.079 17.995698,18.37601 0.003,0.27965 c 0.0359,2.44975 1.08679,4.91 2.91302,6.77713 3.68167,3.75996 9.32988,4.08342 12.63409,0.8476 3.30337,-3.2353 3.09636,-8.88897 -0.58377,-12.64845 -1.8279,-1.86086 -4.26066,-2.95892 -6.70596,-3.04601 l -0.27965,-0.0111 -17.702393,-18.07693 0.119364,-0.39397 c 1.42004,-4.68798 -0.03448,-10.11785 -3.800872,-13.9691 -2.517254,-2.56504 -5.808236,-4.02873 -9.145934,-4.36663 z m -45.370261,1.14305 -0.6959,5.32279 1.701651,0.22215 0.342202,-2.61827 c 0.06337,-0.48474 0.213813,-0.85037 0.452194,-1.09633 0.238793,-0.24912 0.535888,-0.35048 0.890726,-0.3041 0.145735,0.0191 0.271655,0.0676 0.377426,0.14595 0.106188,0.0751 0.185199,0.17228 0.237239,0.29187 0.03993,0.089 0.05769,0.22226 0.05392,0.39899 -5.99e-4,0.17716 -0.03054,0.49532 -0.09058,0.95471 l -0.255213,1.95327 -0.06902,0.52696 1.711002,0.22431 0.423436,-3.24156 c 0.094,-0.71918 0.0054,-1.28785 -0.265276,-1.70669 -0.26754,-0.41842 -0.708162,-0.66804 -1.322791,-0.74838 -0.348502,-0.0455 -0.677135,-0.0126 -0.984905,0.0985 -0.307356,0.1081 -0.609332,0.30035 -0.906543,0.57729 l 0.102083,-0.77929 z m 6.258812,0.81812 1.395397,5.59597 1.867723,0.24372 2.79152,-5.04817 -1.706688,-0.22286 -1.801582,3.50538 -0.845437,-3.8519 z m 9.010065,1.09418 c -0.653671,0.008 -1.207337,0.172 -1.662113,0.48957 -0.605952,0.42026 -0.966524,1.06921 -1.081236,1.9468 -0.114716,0.87759 0.06633,1.59887 0.543494,2.16391 0.477569,0.56188 1.196759,0.90544 2.156724,1.03092 0.275626,0.0361 0.552684,0.0467 0.831774,0.0315 0.281847,-0.0111 0.562155,-0.0487 0.841122,-0.11212 l 0.181885,-1.39252 c -0.223058,0.12868 -0.459865,0.21683 -0.710999,0.26456 -0.24797,0.0481 -0.505262,0.0549 -0.771391,0.0201 -0.47523,-0.0621 -0.827413,-0.24817 -1.057512,-0.55859 -0.226515,-0.31316 -0.307291,-0.71899 -0.242274,-1.21638 0.06503,-0.49741 0.246662,-0.86658 0.545654,-1.10784 0.302571,-0.24402 0.691558,-0.33459 1.166787,-0.27247 0.250288,0.0327 0.486065,0.10229 0.707403,0.20848 0.224507,0.1067 0.442197,0.25421 0.65277,0.44285 l 0.181164,-1.38749 c -0.256459,-0.13342 -0.518077,-0.2418 -0.784328,-0.32495 -0.262669,-0.0858 -0.532844,-0.14687 -0.811646,-0.18332 -0.239992,-0.0313 -0.469384,-0.046 -0.687278,-0.0432 z m 19.391094,0.53702 c -0.448793,-0.005 -0.807941,0.0807 -1.077641,0.2581 -0.359184,0.23338 -0.576982,0.6402 -0.652769,1.21998 l -0.04816,0.37024 -0.836809,-0.10935 -0.158879,1.2171 0.836093,0.10921 -0.536305,4.10568 1.715312,0.2243 0.537024,-4.10568 1.924515,0.25163 -0.537024,4.10567 1.716034,0.2243 0.6959,-5.32279 -3.640545,-0.47591 0.04816,-0.37024 c 0.02816,-0.21543 0.09392,-0.35998 0.196979,-0.4335 0.103476,-0.0766 0.274249,-0.0994 0.511864,-0.0683 l 0.94105,0.12298 0.145936,-1.11718 -1.302659,-0.16967 c -0.169497,-0.0221 -0.328475,-0.0348 -0.478075,-0.0368 z m -13.725382,0.20344 c -0.626349,0.0125 -1.158552,0.17846 -1.596694,0.49822 -0.581018,0.42672 -0.928833,1.0774 -1.043133,1.95183 -0.114298,0.87443 0.0543,1.59283 0.506111,2.15456 0.454977,0.56217 1.14233,0.90292 2.061109,1.023 0.9156,0.11965 1.662263,-0.0336 2.240112,-0.4608 0.581019,-0.42675 0.928115,-1.07743 1.042415,-1.95185 0.114299,-0.87442 -0.0543,-1.59281 -0.50611,-2.15456 -0.448643,-0.56132 -1.130402,-0.90188 -2.046009,-1.02157 -0.229693,-0.0301 -0.449019,-0.043 -0.657801,-0.0388 z m 15.857662,0.0488 -0.181165,1.3875 1.715315,0.2243 0.181165,-1.3875 z m -11.063269,0.6614 -0.6959,5.32279 1.701652,0.22215 0.342202,-2.61827 c 0.06337,-0.48473 0.213813,-0.85038 0.452194,-1.09633 0.238792,-0.24913 0.535888,-0.35048 0.890725,-0.30409 0.145738,0.0191 0.271654,0.0676 0.377426,0.14593 0.106189,0.0751 0.1852,0.17229 0.237239,0.29188 0.03993,0.0891 0.05769,0.22225 0.05392,0.39899 -5.99e-4,0.17714 -0.03054,0.49532 -0.09058,0.9547 l -0.255213,1.95328 -0.06902,0.52768 1.710283,0.22358 0.424154,-3.24156 c 0.094,-0.71918 0.0054,-1.28785 -0.265275,-1.70668 -0.26754,-0.41843 -0.70888,-0.66805 -1.323512,-0.74839 -0.348499,-0.0455 -0.676415,-0.0125 -0.984185,0.0985 -0.307352,0.10809 -0.609332,0.30034 -0.906543,0.57727 l 0.10136,-0.77929 z m -4.565061,0.5363 c 0.08539,-0.005 0.174618,-0.003 0.268872,0.009 0.370676,0.0484 0.636455,0.22163 0.797266,0.51978 0.161227,0.29496 0.209019,0.69768 0.142345,1.20775 -0.06668,0.51009 -0.216557,0.88837 -0.448598,1.13517 -0.231631,0.24362 -0.532271,0.34104 -0.902947,0.29259 -0.377017,-0.0493 -0.647972,-0.22152 -0.812368,-0.51691 -0.16081,-0.29812 -0.207579,-0.7027 -0.140905,-1.21279 0.06668,-0.51007 0.215534,-0.88649 0.447162,-1.13012 0.176406,-0.18477 0.393,-0.28634 0.649173,-0.30481 z m 20.350835,1.41841 c -0.550987,-0.0153 -1.041068,0.17593 -1.470885,0.57368 -0.490791,0.45142 -0.788223,1.07466 -0.892158,1.86988 -0.103508,0.79205 0.02351,1.47296 0.381015,2.0417 0.357864,0.56556 0.861663,0.89065 1.511145,0.97556 0.370677,0.0484 0.706172,0.0182 1.007194,-0.0906 0.301007,-0.10892 0.589091,-0.3032 0.864126,-0.58303 l -0.04744,0.36592 c -0.06789,0.51958 -0.248212,0.88418 -0.539899,1.09418 -0.291673,0.20999 -0.7163,0.2785 -1.273909,0.2056 -0.288307,-0.0377 -0.569323,-0.11797 -0.843273,-0.24083 -0.274366,-0.11964 -0.549137,-0.2846 -0.824588,-0.49461 l -0.173257,1.32639 c 0.299979,0.14554 0.60196,0.26385 0.905819,0.35514 0.30386,0.0913 0.622048,0.15852 0.95472,0.20202 1.026489,0.1341 1.838557,0.009 2.436371,-0.37311 0.600568,-0.37907 0.956486,-0.99579 1.068294,-1.8512 l 0.625457,-4.78576 -1.710292,-0.22358 -0.103508,0.78862 c -0.193442,-0.34428 -0.421484,-0.60747 -0.6844,-0.79007 -0.262918,-0.18259 -0.579716,-0.29805 -0.950393,-0.34651 -0.08125,-0.0111 -0.161404,-0.0173 -0.240116,-0.0194 z m 0.459378,1.31992 c 0.08028,-0.005 0.164424,-0.004 0.252345,0.008 0.354832,0.0463 0.613938,0.21274 0.776413,0.49821 0.162474,0.28547 0.212377,0.66567 0.150247,1.14092 -0.06177,0.47205 -0.207424,0.82482 -0.437802,1.05894 -0.230392,0.23411 -0.523679,0.32819 -0.878511,0.28181 -0.364347,-0.0476 -0.624788,-0.20869 -0.782171,-0.48383 -0.156966,-0.2783 -0.20396,-0.66163 -0.140189,-1.14954 0.06219,-0.47522 0.20887,-0.82985 0.439249,-1.06398 0.172797,-0.17558 0.379414,-0.27239 0.620419,-0.29043 z m 34.795137,33.76132 c 1.17747,0.0126 2.35085,0.47155 3.2358,1.37527 1.77002,1.8074 1.73959,4.72942 -0.0676,6.49965 -1.80766,1.77023 -4.72954,1.73946 -6.49965,-0.0683 -1.77026,-1.80766 -1.73946,-4.72955 0.0683,-6.49966 0.90386,-0.88484 2.08565,-1.31949 3.26313,-1.30697 z"
       id="path817"
       inkscape:connector-curvature="0" />
  </g>
</svg>
