<?xml version="1.0" encoding="UTF-8" standalone="no"?>
<!-- Created with Inkscape (http://www.inkscape.org/) -->

<svg
   xmlns:dc="http://purl.org/dc/elements/1.1/"
   xmlns:cc="http://creativecommons.org/ns#"
   xmlns:rdf="http://www.w3.org/1999/02/22-rdf-syntax-ns#"
   xmlns:svg="http://www.w3.org/2000/svg"
   xmlns="http://www.w3.org/2000/svg"
   xmlns:sodipodi="http://sodipodi.sourceforge.net/DTD/sodipodi-0.dtd"
   xmlns:inkscape="http://www.inkscape.org/namespaces/inkscape"
   width="210mm"
   height="297mm"
   viewBox="0 0 210 297"
   version="1.1"
   id="svg8"
   inkscape:version="0.92.5 (2060ec1f9f, 2020-04-08)"
   sodipodi:docname="logo_draft.svg">
  <defs
     id="defs2" />
  <sodipodi:namedview
     id="base"
     pagecolor="#ffffff"
     bordercolor="#666666"
     borderopacity="1.0"
     inkscape:pageopacity="0.0"
     inkscape:pageshadow="2"
     inkscape:zoom="0.7"
     inkscape:cx="433.82105"
     inkscape:cy="352.76836"
     inkscape:document-units="mm"
     inkscape:current-layer="layer1"
     showgrid="false"
     inkscape:snap-nodes="false"
     inkscape:snap-others="false"
     inkscape:window-width="1848"
     inkscape:window-height="1016"
     inkscape:window-x="72"
     inkscape:window-y="27"
     inkscape:window-maximized="1" />
  <metadata
     id="metadata5">
    <rdf:RDF>
      <cc:Work
         rdf:about="">
        <dc:format>image/svg+xml</dc:format>
        <dc:type
           rdf:resource="http://purl.org/dc/dcmitype/StillImage" />
        <dc:title></dc:title>
      </cc:Work>
    </rdf:RDF>
  </metadata>
  <g
     inkscape:label="Layer 1"
     inkscape:groupmode="layer"
     id="layer1">
    <path
       style="fill:#000300;fill-opacity:1;stroke:none;stroke-width:0.5;stroke-miterlimit:4;stroke-dasharray:none;stroke-dashoffset:0;stroke-opacity:1"
       d="m 89.779901,69.173555 -2.404504,3.70985 a 31.805075,31.805075 0 0 0 -1.186492,-0.05943 31.805075,31.805075 0 0 0 -1.966288,0.06977 l -2.462898,-3.580143 a 35.546847,35.546847 0 0 0 -3.587895,0.639752 l -1.0511,4.215765 A 31.805075,31.805075 0 0 0 74.10644,75.235201 L 70.587791,72.62864 a 35.546847,35.546847 0 0 0 -3.141927,1.737363 l 0.376203,4.345471 a 31.805075,31.805075 0 0 0 -2.561082,2.020549 l -4.174424,-1.322401 a 35.546847,35.546847 0 0 0 -2.374013,2.620513 l 1.750279,3.951179 a 31.805075,31.805075 0 0 0 -1.844849,2.844271 l -4.306713,0.102319 a 35.546847,35.546847 0 0 0 -1.37976,3.208589 l 2.871658,3.096453 a 31.805075,31.805075 0 0 0 -0.841293,3.447333 l -4.008022,1.483631 a 35.546847,35.546847 0 0 0 -0.253733,3.40444 l 3.716571,1.99368 a 31.805075,31.805075 0 0 0 0.329694,3.64681 l -3.283003,2.68355 a 35.546847,35.546847 0 0 0 0.846461,3.24528 l 4.121195,0.6718 a 31.805075,31.805075 0 0 0 1.542023,3.47214 l -2.205032,3.55792 a 35.546847,35.546847 0 0 0 1.831414,2.7404 l 4.098456,-0.6997 a 31.805075,31.805075 0 0 0 2.655137,2.81998 l -0.93793,4.11396 a 35.546847,35.546847 0 0 0 2.569353,1.95337 l 3.680396,-2.00917 a 31.805075,31.805075 0 0 0 3.474723,1.84433 l 0.440801,4.12274 a 35.546847,35.546847 0 0 0 3.072162,1.01648 l 2.788462,-3.0515 a 31.805075,31.805075 0 0 0 3.928959,0.60255 l 1.746663,3.73724 a 35.546847,35.546847 0 0 0 1.081588,0.0543 35.546847,35.546847 0 0 0 2.145088,-0.076 l 1.669666,-3.84525 a 31.805075,31.805075 0 0 0 3.862814,-0.70383 l 2.87941,2.98173 a 35.546847,35.546847 0 0 0 3.068547,-1.10588 l 0.329177,-4.15426 a 31.805075,31.805075 0 0 0 3.38532,-1.90686 l 3.67885,1.87895 a 35.546847,35.546847 0 0 0 2.57504,-2.08566 l -1.04283,-4.05402 a 31.805075,31.805075 0 0 0 2.47891,-2.83341 l 2.28824,0.32556 -5.87613,-6.00015 c -0.53624,0.0943 -1.07798,0.14014 -1.62057,0.14934 A 24.321525,24.321525 0 0 1 86.188905,128.95078 24.321525,24.321525 0 0 1 61.867392,104.62876 24.321525,24.321525 0 0 1 86.188905,80.307242 24.321525,24.321525 0 0 1 109.87842,99.290578 c 0.76725,0.490685 1.48774,1.073272 2.1425,1.740462 h 0.002 c 2.86391,2.92765 4.0044,7.0328 3.02358,10.70891 l 2.88252,2.944 2.43912,-0.46715 a 35.546847,35.546847 0 0 0 0.77774,-3.3414 l -3.38016,-2.61121 a 31.805075,31.805075 0 0 0 0.22272,-3.5202 l 3.68918,-2.11201 a 35.546847,35.546847 0 0 0 -0.36896,-3.471109 l -4.10415,-1.392163 a 31.805075,31.805075 0 0 0 -0.89865,-3.239596 l 2.85357,-3.251996 a 35.546847,35.546847 0 0 0 -1.48776,-3.222543 l -4.36046,0.01602 a 31.805075,31.805075 0 0 0 -1.84175,-2.69906 l 1.63918,-3.993554 a 35.546847,35.546847 0 0 0 -2.49907,-2.619994 l -4.09329,1.422135 a 31.805075,31.805075 0 0 0 -2.56729,-1.92288 l 0.25477,-4.324284 a 35.546847,35.546847 0 0 0 -3.23236,-1.686203 l -3.447855,2.704229 a 31.805075,31.805075 0 0 0 -2.978113,-0.97255 l -1.185976,-4.253489 a 35.546847,35.546847 0 0 0 -3.579625,-0.551386 z m -22.216731,28.349172 -0.666626,5.100463 3.624585,0.47336 0.129707,-0.99374 -2.309421,-0.30179 0.152964,-1.1684 2.100646,0.2744 0.130225,-0.99374 -2.101165,-0.274918 0.124542,-0.949814 2.233973,0.292488 0.129706,-0.994253 z m 37.17086,1.070221 v 5.16e-4 c -0.006,0.115533 -0.0126,0.235995 -0.0196,0.345715 l 3.67368,3.753781 c 1.76243,1.79979 1.73155,4.69042 -0.0682,6.45283 l -2.49803,2.44533 c -1.79973,1.7624 -4.68889,1.73357 -6.451289,-0.0662 l -3.675745,-3.75377 c -0.109117,0.005 -0.228785,0.007 -0.343649,0.0114 0.190519,2.40455 1.191139,4.79245 2.9962,6.64094 2.545373,2.59366 6.134153,3.75835 9.392193,3.08198 l 0.26768,-0.0568 12.93565,13.20902 0.002,0.20102 c 0.0258,1.76093 0.7812,3.5294 2.09393,4.87153 2.64645,2.70273 6.70649,2.93523 9.08162,0.60927 2.37453,-2.3256 2.22573,-6.38956 -0.41962,-9.09195 -1.31393,-1.33762 -3.06264,-2.12693 -4.82037,-2.18953 l -0.20102,-0.008 -12.72481,-12.99404 0.0858,-0.28319 c 1.02075,-3.36981 -0.0248,-7.2729 -2.73214,-10.04125 -1.80945,-1.843805 -4.17507,-2.895929 -6.57427,-3.138822 z m -32.613,0.821653 -0.500226,3.826119 1.223179,0.15969 0.245981,-1.88206 c 0.04555,-0.34844 0.153693,-0.61127 0.325046,-0.78807 0.171648,-0.17907 0.385206,-0.25193 0.64027,-0.21859 0.104757,0.0137 0.195271,0.0486 0.271301,0.10491 0.07633,0.054 0.133125,0.12384 0.170532,0.2098 0.0287,0.064 0.04147,0.15977 0.03876,0.28681 -4.31e-4,0.12734 -0.02195,0.35604 -0.06511,0.68626 l -0.183452,1.40405 -0.04961,0.37879 1.2299,0.16123 0.304374,-2.33009 c 0.06757,-0.51696 0.0039,-0.92573 -0.190685,-1.2268 -0.192313,-0.300776 -0.50904,-0.480203 -0.950847,-0.537953 -0.25051,-0.03275 -0.486738,-0.0092 -0.707969,0.0708 -0.220933,0.07767 -0.437999,0.215892 -0.65164,0.414963 l 0.07338,-0.560174 z m 4.498952,0.588079 1.003038,4.02249 1.342554,0.17519 2.006597,-3.62872 -1.226799,-0.1602 -1.295011,2.51974 -0.607716,-2.76882 z m 6.476605,0.78652 c -0.469871,0.006 -0.867857,0.12364 -1.194758,0.35191 -0.43557,0.30209 -0.694756,0.76857 -0.777213,1.3994 -0.08246,0.63083 0.04768,1.14929 0.390673,1.55546 0.343286,0.40389 0.860253,0.65084 1.550294,0.74104 0.198126,0.0259 0.39728,0.0336 0.597895,0.0227 0.202597,-0.008 0.404088,-0.035 0.604615,-0.0806 l 0.130742,-1.00097 c -0.160338,0.0925 -0.33056,0.15586 -0.51108,0.19017 -0.178245,0.0346 -0.363191,0.0395 -0.55449,0.0145 -0.341604,-0.0447 -0.59476,-0.17839 -0.760159,-0.40153 -0.162824,-0.22511 -0.220887,-0.51682 -0.174151,-0.87436 0.04674,-0.35755 0.177305,-0.62291 0.392226,-0.79634 0.217493,-0.1754 0.497105,-0.2405 0.838708,-0.19585 0.179912,0.0235 0.349393,0.0735 0.508495,0.14986 0.16138,0.0767 0.31786,0.18273 0.469223,0.31833 l 0.130225,-0.99736 c -0.184348,-0.0959 -0.372404,-0.17381 -0.56379,-0.23357 -0.188812,-0.0617 -0.383019,-0.10558 -0.583427,-0.13178 -0.172511,-0.0225 -0.337402,-0.0331 -0.494028,-0.031 z m 13.938684,0.38602 c -0.322601,-0.004 -0.580763,0.058 -0.774629,0.18552 -0.258188,0.16776 -0.414745,0.46019 -0.469222,0.87695 l -0.03462,0.26613 -0.601514,-0.0786 -0.114205,0.87488 0.600999,0.0785 -0.385506,2.95124 1.232998,0.16123 0.386024,-2.95124 1.383377,0.18087 -0.386022,2.95124 1.233517,0.16123 0.500226,-3.82612 -2.616893,-0.3421 0.03462,-0.26613 c 0.02024,-0.15486 0.06751,-0.25876 0.141592,-0.31161 0.07438,-0.0551 0.197136,-0.0714 0.367938,-0.0491 l 0.676444,0.0884 0.104902,-0.80305 -0.936376,-0.12196 c -0.121838,-0.0159 -0.236114,-0.025 -0.343649,-0.0264 z m -9.866064,0.14624 c -0.450231,0.009 -0.832789,0.12828 -1.147733,0.35812 -0.417647,0.30674 -0.667663,0.77446 -0.749824,1.40302 -0.08216,0.62855 0.03903,1.14495 0.363802,1.54874 0.327046,0.40409 0.821129,0.64903 1.481564,0.73535 0.658151,0.086 1.194866,-0.0242 1.610235,-0.33124 0.417648,-0.30675 0.667147,-0.77447 0.749308,-1.40302 0.08216,-0.62855 -0.03903,-1.14495 -0.363802,-1.54874 -0.322493,-0.40349 -0.812554,-0.64829 -1.47071,-0.73432 -0.165108,-0.0216 -0.322763,-0.0309 -0.47284,-0.0279 z m 11.398787,0.0351 -0.130225,0.99736 1.233001,0.16123 0.130225,-0.99736 z m -7.952486,0.47543 -0.500226,3.82612 1.223179,0.15968 0.245981,-1.88206 c 0.04555,-0.34843 0.153693,-0.61126 0.325046,-0.78806 0.171648,-0.17908 0.385206,-0.25193 0.64027,-0.21859 0.104759,0.0137 0.19527,0.0486 0.271301,0.1049 0.07633,0.054 0.133125,0.12385 0.170532,0.20981 0.0287,0.064 0.04147,0.15976 0.03876,0.2868 -4.31e-4,0.12733 -0.02195,0.35605 -0.06511,0.68626 l -0.183452,1.40405 -0.04961,0.37931 1.229384,0.16071 0.30489,-2.33009 c 0.06757,-0.51696 0.0039,-0.92573 -0.190685,-1.2268 -0.192313,-0.30077 -0.509556,-0.4802 -0.951365,-0.53795 -0.250508,-0.0327 -0.48622,-0.009 -0.707451,0.0708 -0.22093,0.0777 -0.437999,0.21589 -0.65164,0.41496 l 0.07286,-0.56017 z m -3.281452,0.3855 c 0.06138,-0.004 0.125518,-0.002 0.19327,0.007 0.266449,0.0348 0.457496,0.15931 0.57309,0.37362 0.115893,0.21203 0.150247,0.50151 0.10232,0.86816 -0.04793,0.36666 -0.155665,0.63858 -0.322461,0.81598 -0.1665,0.17512 -0.382606,0.24515 -0.649055,0.21032 -0.271007,-0.0354 -0.465775,-0.15923 -0.583946,-0.37156 -0.115593,-0.2143 -0.149211,-0.50512 -0.101285,-0.87178 0.04793,-0.36665 0.15493,-0.63723 0.321429,-0.81235 0.126804,-0.13282 0.282496,-0.20583 0.466638,-0.21911 z m 14.628564,1.01958 c -0.39606,-0.011 -0.74834,0.12646 -1.0573,0.41237 -0.35279,0.32449 -0.56659,0.77249 -0.6413,1.34411 -0.0744,0.56934 0.0169,1.05879 0.27388,1.46761 0.25724,0.40654 0.61938,0.64022 1.08624,0.70125 0.26645,0.0348 0.50761,0.0131 0.72399,-0.0651 0.21637,-0.0783 0.42345,-0.21795 0.62115,-0.4191 l -0.0341,0.26303 c -0.0488,0.37349 -0.17842,0.63557 -0.38809,0.78652 -0.20966,0.15095 -0.51489,0.20019 -0.91571,0.14779 -0.20724,-0.0271 -0.40924,-0.0848 -0.60616,-0.17311 -0.19722,-0.086 -0.39473,-0.20458 -0.59273,-0.35554 l -0.12454,0.95344 c 0.21563,0.10462 0.4327,0.18966 0.65112,0.25528 0.21842,0.0656 0.44714,0.11395 0.68627,0.14521 0.73786,0.0964 1.32159,0.007 1.75131,-0.2682 0.4317,-0.27248 0.68754,-0.71579 0.76791,-1.33067 l 0.44959,-3.4401 -1.22939,-0.16071 -0.0744,0.56688 c -0.13905,-0.24748 -0.30297,-0.43667 -0.49196,-0.56792 -0.18899,-0.13125 -0.41671,-0.21425 -0.68316,-0.24908 -0.0584,-0.008 -0.11602,-0.0124 -0.1726,-0.0139 z m 0.33021,0.94878 c 0.0577,-0.004 0.11819,-0.003 0.18139,0.006 0.25506,0.0333 0.44131,0.15292 0.5581,0.35812 0.11679,0.2052 0.15266,0.4785 0.108,0.82011 -0.0444,0.33932 -0.1491,0.5929 -0.3147,0.76119 -0.16561,0.16828 -0.37643,0.23591 -0.63149,0.20257 -0.2619,-0.0342 -0.44911,-0.15001 -0.56224,-0.34778 -0.11283,-0.20005 -0.14661,-0.4756 -0.10077,-0.82631 0.0447,-0.3416 0.15014,-0.59652 0.31574,-0.76481 0.12421,-0.12621 0.27273,-0.1958 0.44597,-0.20877 z m 25.0114,24.26828 c 0.84638,0.009 1.68983,0.33895 2.32595,0.98857 1.27232,1.29919 1.25045,3.3996 -0.0486,4.67207 -1.29938,1.27248 -3.39968,1.25035 -4.67207,-0.0491 -1.27249,-1.29937 -1.25035,-3.39969 0.0491,-4.67207 0.64971,-0.63604 1.49921,-0.94848 2.3456,-0.93948 z"
       id="path817"
       inkscape:connector-curvature="0" />
    <path
       style="fill:#000000;fill-opacity:1;stroke:none;stroke-width:0.52696097;stroke-miterlimit:4;stroke-dasharray:none;stroke-dashoffset:0;stroke-opacity:1"
       d="m 52.74451,189.2842 c -0.296178,0.28014 -0.580846,0.54149 -0.839743,0.76791 v 5.34851 c 0,2.19985 -1.771494,3.97082 -3.971335,3.97082 h -3.417879 c -2.199839,0 -3.970817,-1.77097 -3.970817,-3.97082 v -5.34903 c -0.257815,-0.22548 -0.541324,-0.48553 -0.836123,-0.76429 -1.799341,1.94042 -2.834637,4.61791 -2.838587,7.43779 0.0035,3.70829 1.785969,7.13342 4.677235,8.98756 v 17.60823 c -1.278543,1.34448 -2.003343,3.21357 -2.004531,5.16919 -1.32e-4,3.93512 2.871835,7.12523 6.414595,7.12515 3.542562,-2.4e-4 6.414209,-3.19025 6.41408,-7.12515 -0.003,-1.9531 -0.727628,-3.81921 -2.004529,-5.16196 v -17.293 c 3.189899,-1.74993 5.209974,-5.35826 5.212086,-9.31002 -0.0026,-2.8204 -1.035826,-5.49918 -2.834452,-7.44089 z m -6.127793,36.15386 c 0.13099,0.0133 0.261208,0.0333 0.390157,0.0599 l 0.129191,0.46405 c 0.110051,0.0305 0.218525,0.0663 0.325046,0.10749 l 0.376203,-0.29507 c 0.12055,0.0553 0.238183,0.11666 0.352433,0.18397 l -0.0279,0.4718 c 0.0968,0.0652 0.190304,0.13521 0.280085,0.20981 l 0.446485,-0.15503 c 0.0957,0.0906 0.186822,0.18594 0.272851,0.28577 l -0.1788,0.43563 c 0.0718,0.0945 0.138745,0.19266 0.200504,0.29404 l 0.475941,-0.002 c 0.0599,0.11453 0.114072,0.23199 0.162263,0.35192 l -0.311092,0.3545 c 0.0388,0.11602 0.07137,0.23401 0.09767,0.35347 l 0.447516,0.15193 c 0.0196,0.12534 0.03311,0.25159 0.04031,0.37827 l -0.402042,0.23047 c -10e-4,0.12833 -0.009,0.25652 -0.02429,0.38396 l 0.368454,0.28525 c -0.0224,0.12273 -0.05013,0.24432 -0.08423,0.36432 l -0.453718,0.0868 c -0.0433,0.12473 -0.09319,0.24688 -0.150379,0.36587 l 0.255797,0.38912 c -0.0595,0.10634 -0.12401,0.2098 -0.19327,0.31006 l -0.455269,-0.0651 c -0.0839,0.10825 -0.174157,0.21144 -0.270266,0.30902 l 0.113686,0.44235 c -0.0901,0.0801 -0.183928,0.156 -0.28112,0.22738 l -0.401008,-0.20516 c -0.1188,0.0769 -0.242713,0.14644 -0.370004,0.20826 l -0.03565,0.4532 c -0.10972,0.0452 -0.221454,0.0854 -0.334865,0.12041 l -0.314192,-0.32505 c -0.138671,0.0343 -0.279324,0.06 -0.421164,0.077 l -0.182417,0.4191 c -0.0779,0.005 -0.155993,0.008 -0.234093,0.008 -0.0393,-0.002 -0.0786,-0.004 -0.117824,-0.006 l -0.190685,-0.40773 c -0.144032,-0.0129 -0.287108,-0.0348 -0.428398,-0.0656 l -0.303858,0.3328 c -0.113419,-0.0318 -0.225319,-0.0686 -0.33538,-0.11059 l -0.04806,-0.45011 c -0.130289,-0.0591 -0.256789,-0.12627 -0.378788,-0.20102 l -0.401527,0.21911 c -0.0967,-0.0667 -0.190341,-0.13773 -0.280601,-0.2129 l 0.10232,-0.44907 c -0.102611,-0.0965 -0.199258,-0.19921 -0.289388,-0.30748 l -0.447003,0.0765 c -0.0712,-0.0966 -0.137996,-0.19642 -0.199988,-0.2992 l 0.240813,-0.38809 c -0.0636,-0.12262 -0.119885,-0.24894 -0.168466,-0.37827 l -0.449585,-0.0734 c -0.0362,-0.11648 -0.06688,-0.23462 -0.09198,-0.35399 l 0.358116,-0.29301 c -0.0197,-0.13182 -0.03177,-0.26468 -0.03617,-0.3979 l -0.405659,-0.21704 c 0.003,-0.12422 0.01271,-0.24823 0.02791,-0.37156 l 0.437181,-0.16174 c 0.0236,-0.12702 0.05429,-0.25262 0.09198,-0.37621 l -0.313161,-0.33744 c 0.0444,-0.11919 0.0945,-0.23611 0.150379,-0.35037 l 0.469741,-0.0109 c 0.0614,-0.10703 0.12854,-0.2107 0.20102,-0.31058 L 43.227794,226.841 c 0.0815,-0.0995 0.167918,-0.19486 0.258897,-0.28577 l 0.455271,0.14418 c 0.0894,-0.0781 0.182679,-0.15159 0.27957,-0.22015 l -0.04134,-0.47439 c 0.11095,-0.0688 0.225292,-0.13189 0.342614,-0.18913 l 0.383955,0.28422 c 0.10754,-0.0442 0.217234,-0.083 0.328663,-0.11627 l 0.114721,-0.45992 c 0.129291,-0.0299 0.260027,-0.0532 0.391707,-0.0698 l 0.268719,0.39068 c 0.0714,-0.005 0.142896,-0.008 0.214456,-0.008 0.0431,0.001 0.0862,0.003 0.12919,0.006 z"
       id="path4530"
       inkscape:connector-curvature="0" />
    <path
       inkscape:connector-curvature="0"
       id="path4554"
       d="m -40.967673,181.42082 a 9.3544331,10.390451 0 0 0 -9.354468,10.39049 9.3544331,10.390451 0 0 0 4.677234,8.98764 v 17.6085 a 6.4144686,7.1248807 0 0 0 -2.004529,5.16884 6.4144686,7.1248807 0 0 0 6.414595,7.12502 6.4144686,7.1248807 0 0 0 6.414079,-7.12502 6.4144686,7.1248807 0 0 0 -2.004529,-5.16195 v -17.2928 a 9.3544331,10.390451 0 0 0 5.212085,-9.31023 9.3544331,10.390451 0 0 0 -9.354467,-10.39049 z"
       style="fill:#ffd3ff;fill-opacity:1;stroke:none;stroke-width:0.52696097;stroke-miterlimit:4;stroke-dasharray:none;stroke-dashoffset:0;stroke-opacity:1" />
    <rect
       ry="3.9708407"
       y="160.98715"
       x="-46.581173"
       height="33.470753"
       width="11.359653"
       id="rect4556"
       style="fill:#ff68ff;fill-opacity:1;stroke:none;stroke-width:0.5;stroke-miterlimit:4;stroke-dasharray:none;stroke-dashoffset:0;stroke-opacity:1" />
    <rect
       style="fill:#a70000;fill-opacity:0.98431373;stroke:none;stroke-width:0.5;stroke-miterlimit:4;stroke-dasharray:none;stroke-dashoffset:0;stroke-opacity:1"
       id="rect4619"
       width="9.7553377"
       height="9.0871639"
       x="166.327"
       y="73.368767"
       ry="3.9708402"
       transform="rotate(45)"
       rx="0.4009043" />
    <rect
       rx="0.4009043"
       transform="matrix(-0.70710678,0.70710678,0.70710678,0.70710678,0,0)"
       ry="3.9708402"
       y="160.67424"
       x="79.021523"
       height="9.0871639"
       width="9.7553377"
       id="rect4621"
       style="fill:#a70000;fill-opacity:0.98431373;stroke:none;stroke-width:0.5;stroke-miterlimit:4;stroke-dasharray:none;stroke-dashoffset:0;stroke-opacity:1" />
    <path
       id="path4626"
       d="m -15.784382,92.563523 c -0.58196,-0.0988 -1.13217,-0.20078 -1.61952,-0.30327 l -6.18891,4.65565 c -2.5455,1.91485 -6.13672,1.40653 -8.051568,-1.13895 l -2.97509,-3.95491 c -1.91485,-2.545485 -1.40719,-6.136256 1.13833,-8.051133 l 6.189478,-4.656063 c 0.0364,-0.494599 0.0907,-1.049014 0.15658,-1.632774 -3.811538,-0.393036 -7.810888,0.739622 -11.077298,3.189614 -4.28722,3.232831 -6.69966,8.275891 -6.32841,13.235396 l -20.374922,15.327077 c -2.668628,-0.30914 -5.462292,0.47913 -7.726228,2.18003 -4.553533,3.42517 -5.744988,9.5252 -2.661107,13.62456 3.083914,4.09897 9.274772,4.64508 13.827823,1.2198 2.257502,-1.70338 3.785927,-4.16639 4.228183,-6.81273 l 20.010131,-15.05268 c 4.80155,2.16789 10.735208,1.36449 15.309728,-2.07287 3.26109,-2.458307 5.4616,-5.985347 6.1428,-9.756747 z m -47.168452,24.379497 c 0.09858,0.16318 0.188792,0.3313 0.270301,0.50362 l -0.424535,0.55344 c 0.06058,0.15386 0.113533,0.31058 0.15858,0.46968 l 0.668905,0.17846 c 0.04096,0.1876 0.07226,0.37716 0.0939,0.56795 l -0.570251,0.37836 c 0.0094,0.16875 0.0094,0.33791 0.001,0.50673 l 0.568023,0.38169 c -0.02165,0.18958 -0.05249,0.37801 -0.09313,0.56447 l -0.659733,0.17231 c -0.04687,0.16533 -0.102159,0.32825 -0.165711,0.48793 l 0.416763,0.54888 c -0.08036,0.16901 -0.169138,0.33393 -0.265955,0.49408 l -0.681005,-0.0514 c -0.100447,0.14592 -0.208616,0.28631 -0.323949,0.42072 l 0.213724,0.65008 c -0.12801,0.13174 -0.262281,0.25732 -0.402608,0.3759 l -0.616639,-0.2646 c -0.149189,0.11083 -0.304638,0.2129 -0.465429,0.30609 l -0.0094,0.67466 c -0.161477,0.081 -0.326285,0.1548 -0.494846,0.2197 l -0.495377,-0.44947 c -0.182032,0.0586 -0.366821,0.10703 -0.554257,0.14453 l -0.22763,0.63469 c -0.174822,0.0237 -0.350688,0.0391 -0.527005,0.0463 l -0.320942,-0.58347 c -0.198291,-0.003 -0.39627,-0.0175 -0.592847,-0.0438 l -0.412902,0.51658 c -0.1711,-0.0346 -0.340581,-0.0771 -0.507788,-0.12739 l -0.111656,-0.64259 c -0.192404,-0.0705 -0.380727,-0.15339 -0.56304,-0.24686 l -0.555504,0.35319 c -0.147787,-0.0876 -0.291588,-0.1819 -0.430794,-0.28267 l 0.102628,-0.6465 c -0.16034,-0.13066 -0.312534,-0.27099 -0.45568,-0.4203 l -0.643724,0.15371 c -0.0735,-0.0859 -0.144984,-0.17355 -0.212991,-0.26392 -0.03177,-0.0473 -0.06338,-0.0947 -0.09609,-0.1414 l 0.305838,-0.57553 c -0.110414,-0.17789 -0.20969,-0.36248 -0.296993,-0.55282 l -0.649594,-0.0619 c -0.06199,-0.1589 -0.116792,-0.32042 -0.163967,-0.48432 l 0.478977,-0.44745 c -0.04501,-0.20223 -0.07739,-0.40704 -0.09718,-0.61327 l -0.603047,-0.27389 c -0.0077,-0.16994 -0.0062,-0.34013 0.0015,-0.51002 l 0.6087,-0.2725 c 0.02227,-0.20273 0.057,-0.40395 0.10387,-0.60249 l -0.477638,-0.45065 c 0.04984,-0.16643 0.107142,-0.33067 0.172159,-0.49184 l 0.65869,-0.0592 c 0.08659,-0.18035 0.183683,-0.35544 0.291044,-0.52421 l -0.306399,-0.58412 c 0.10325,-0.14327 0.213256,-0.28162 0.329524,-0.41458 l 0.650762,0.15933 c 0.135486,-0.1375 0.278617,-0.26716 0.428942,-0.38823 l -0.101911,-0.65826 c 0.146231,-0.10487 0.29827,-0.2014 0.454248,-0.2911 l 0.567697,0.36509 c 0.167487,-0.0833 0.339553,-0.15708 0.515403,-0.22103 l 0.117883,-0.65608 c 0.176536,-0.0524 0.355468,-0.0961 0.536317,-0.13097 l 0.421498,0.53403 c 0.177298,-0.0221 0.355686,-0.0346 0.534354,-0.0377 l 0.332717,-0.59577 c 0.186082,0.008 0.371633,0.0246 0.556017,0.0507 l 0.229467,0.65231 c 0.168189,0.0355 0.334415,0.0794 0.49807,0.1319 l 0.512974,-0.46076 c 0.176192,0.0685 0.348725,0.14592 0.517085,0.23182 l 0.0047,0.69167 c 0.144673,0.086 0.285141,0.17914 0.42061,0.27912 l 0.632059,-0.2676 c 0.147165,0.12352 0.287913,0.25455 0.421731,0.39249 l -0.218086,0.65105 c 0.0679,0.0784 0.133617,0.15841 0.195908,0.24121 0.03675,0.0506 0.07164,0.10221 0.1059,0.15448 z"
       style="fill:#000000;fill-opacity:1;stroke:#ffffff;stroke-width:2.53621006;stroke-linecap:round;stroke-linejoin:round;stroke-miterlimit:4;stroke-dasharray:none;stroke-dashoffset:0;stroke-opacity:1"
       inkscape:connector-curvature="0" />
    <path
       inkscape:connector-curvature="0"
       style="fill:#000000;fill-opacity:1;stroke:#ffffff;stroke-width:1.76949739;stroke-linecap:round;stroke-linejoin:round;stroke-miterlimit:4;stroke-dasharray:none;stroke-dashoffset:0;stroke-opacity:1"
       d="m 176.60764,128.70807 c 0.41003,0.0385 0.79924,0.0691 1.14618,0.0881 l 3.33014,4.25512 c 1.36969,1.75011 3.88167,2.05603 5.63178,0.68636 l 2.71914,-2.12807 c 1.7501,-1.36968 2.05639,-3.88124 0.6867,-5.63138 l -3.33044,-4.2555 c 0.0648,-0.33988 0.12828,-0.72332 0.18932,-1.12862 2.63964,0.42339 5.13035,1.9089 6.88925,4.14984 2.30546,2.95284 3.0206,6.7871 1.87484,10.06237 l 10.96336,14.00842 c 1.85426,0.27355 3.59463,1.30925 4.8132,2.86434 2.45021,3.13055 2.15164,7.45663 -0.6669,9.6624 -2.81848,2.20549 -7.08924,1.45561 -9.53911,-1.67492 -1.21379,-1.5556 -1.79906,-3.49147 -1.61924,-5.35475 l -10.76708,-13.75767 c -3.62733,0.59394 -7.48107,-1.01896 -9.94322,-4.16152 -1.7538,-2.24559 -2.59988,-5.01989 -2.37792,-7.68452 z m 27.38542,24.94735 c -0.0959,0.0922 -0.18707,0.18918 -0.27311,0.29059 l 0.18616,0.44963 c -0.0686,0.0927 -0.13258,0.18881 -0.19168,0.2879 l -0.48302,-5.2e-4 c -0.0615,0.11901 -0.11679,0.24113 -0.16582,0.36579 l 0.31598,0.35796 c -0.0363,0.11218 -0.0668,0.22617 -0.0922,0.34131 l -0.45173,0.15467 c -0.0196,0.13166 -0.0329,0.26421 -0.0391,0.39722 l 0.41349,0.23526 c 0.002,0.11988 0.01,0.23967 0.0236,0.35875 l -0.37999,0.29464 c 0.0237,0.12842 0.0537,0.25559 0.09,0.38099 l 0.46823,0.0883 c 0.0414,0.11648 0.0889,0.23062 0.14235,0.34203 l -0.26143,0.39951 c 0.0625,0.11188 0.1303,0.22077 0.20345,0.32603 l 0.46335,-0.067 c 0.0805,0.10161 0.16685,0.19849 0.25839,0.29032 l -0.11603,0.45623 c 0.0942,0.0837 0.19194,0.16324 0.29381,0.23741 l 0.41501,-0.21345 c 0.11209,0.0724 0.22787,0.13839 0.34743,0.19749 l 0.0388,0.46884 c 0.11354,0.0475 0.22926,0.0897 0.34679,0.12636 l 0.32165,-0.33526 c 0.13414,0.0339 0.27021,0.0598 0.40746,0.0775 l 0.18497,0.42269 c 0.12155,0.008 0.24345,0.01 0.36522,0.006 l 0.19128,-0.41289 c 0.1424,-0.0128 0.28428,-0.0346 0.42402,-0.0647 l 0.31059,0.33834 c 0.11541,-0.0323 0.22935,-0.0699 0.34136,-0.11271 l 0.0476,-0.45423 c 0.13166,-0.0591 0.25955,-0.12619 0.38298,-0.20096 l 0.40606,0.21983 c 0.065,-0.0446 0.12905,-0.0908 0.1912,-0.1394 0.03,-0.0261 0.0598,-0.0524 0.0903,-0.078 l -0.10218,-0.4431 c 0.1065,-0.1 0.20677,-0.20641 0.29999,-0.31892 l 0.44894,0.0756 c 0.0705,-0.0959 0.13659,-0.19485 0.19796,-0.29679 l -0.24199,-0.38803 c 0.0669,-0.12817 0.12566,-0.26034 0.17623,-0.39575 l 0.45586,-0.0757 c 0.0365,-0.11297 0.0653,-0.22819 0.0914,-0.34389 l -0.36101,-0.29356 c 0.0215,-0.14066 0.0345,-0.28253 0.0388,-0.42479 l 0.40326,-0.21746 c -0.004,-0.12117 -0.0125,-0.2422 -0.0272,-0.36254 l -0.43321,-0.15884 c -0.0258,-0.13716 -0.0596,-0.2727 -0.1015,-0.40583 l 0.31197,-0.33832 c -0.0437,-0.11523 -0.0929,-0.2283 -0.1472,-0.3389 l -0.46734,-0.0101 c -0.0665,-0.11709 -0.13952,-0.23035 -0.21897,-0.33909 l 0.18754,-0.42522 c -0.0796,-0.0971 -0.16465,-0.18958 -0.25356,-0.27819 l -0.44851,0.14353 c -0.0978,-0.0864 -0.20047,-0.16719 -0.30743,-0.24203 l 0.0391,-0.46343 c -0.1095,-0.0672 -0.22222,-0.1289 -0.33777,-0.18513 l -0.3805,0.28378 c -0.11549,-0.0469 -0.23346,-0.0875 -0.3533,-0.12189 l -0.11663,-0.46158 c -0.12697,-0.0278 -0.25492,-0.0505 -0.38389,-0.0662 l -0.27243,0.39817 c -0.11976,-0.006 -0.2397,-0.007 -0.35947,-10e-4 l -0.2625,-0.40314 c -0.13111,0.0143 -0.26137,0.0354 -0.39034,0.0628 l -0.12779,0.46535 c -0.11303,0.0318 -0.22452,0.0692 -0.33387,0.11215 l -0.37763,-0.29447 c -0.12148,0.0567 -0.23999,0.11956 -0.35509,0.18835 l 0.0294,0.47814 c -0.0599,0.0406 -0.11863,0.0826 -0.17559,0.12718 -0.034,0.0274 -0.0667,0.0559 -0.0993,0.085 z"
       id="path4628"
       inkscape:transform-center-x="-4.9159609"
       inkscape:transform-center-y="0.75710021" />
    <path
       style="fill:#000000;fill-opacity:1;stroke:#ffffff;stroke-width:0;stroke-miterlimit:4;stroke-dasharray:none;stroke-dashoffset:0;stroke-opacity:1"
       d="M 421.49219 694.25195 C 420.37277 695.31075 419.29688 696.29854 418.31836 697.1543 L 418.31836 717.36914 C 418.31836 725.6835 411.62295 732.37695 403.30859 732.37695 L 390.39062 732.37695 C 382.07627 732.37695 375.38281 725.6835 375.38281 717.36914 L 375.38281 697.15234 C 374.40841 696.3001 373.33685 695.31729 372.22266 694.26367 C 365.42199 701.59754 361.50907 711.71719 361.49414 722.375 C 361.50926 736.39058 368.24426 749.33598 379.17188 756.34375 L 379.17188 822.89453 C 374.33958 827.97607 371.60016 835.04032 371.5957 842.43164 C 371.59517 857.30454 382.44988 869.36163 395.83984 869.36133 C 409.22905 869.36038 420.08252 857.3037 420.08203 842.43164 C 420.07069 835.04985 417.33194 827.99684 412.50586 822.92188 L 412.50586 757.5625 C 424.56217 750.94859 432.1971 737.31079 432.20508 722.375 C 432.19374 711.71522 428.29008 701.5907 421.49219 694.25195 z M 394.88867 832.51953 A 10.357142 10.357142 0 0 1 405.24414 842.87695 A 10.357142 10.357142 0 0 1 394.88867 853.23438 A 10.357142 10.357142 0 0 1 384.53125 842.87695 A 10.357142 10.357142 0 0 1 394.88867 832.51953 z "
       transform="scale(0.26458333)"
       id="path4630" />
    <path
       inkscape:connector-curvature="0"
       id="path4637"
       d="m 154.13684,186.33332 c -0.29618,0.28014 -0.58085,0.5415 -0.83975,0.76792 v 5.34851 c 0,2.19984 -1.77149,3.97081 -3.97133,3.97081 h -3.41788 c -2.19984,0 -3.97082,-1.77097 -3.97082,-3.97081 v -5.34903 c -0.25781,-0.22549 -0.54133,-0.48553 -0.83613,-0.7643 -1.79934,1.94042 -2.83463,4.61791 -2.83858,7.43779 0.004,3.70829 1.78596,7.13343 4.67723,8.98757 V 220.37 c -1.27855,1.34449 -2.00335,3.21358 -2.00453,5.1692 -1.4e-4,3.93512 2.87184,7.12523 6.4146,7.12515 3.54256,-2.5e-4 6.41421,-3.19025 6.41408,-7.12515 -0.003,-1.9531 -0.72763,-3.81921 -2.00453,-5.16196 v -17.293 c 3.1899,-1.74993 5.20998,-5.35827 5.21209,-9.31003 -0.003,-2.8204 -1.03584,-5.49918 -2.83445,-7.44089 z"
       style="fill:#000000;fill-opacity:1;stroke:none;stroke-width:0.52696097;stroke-miterlimit:4;stroke-dasharray:none;stroke-dashoffset:0;stroke-opacity:1" />
    <circle
       r="2.7403271"
       cy="225.65698"
       cx="147.09756"
       id="circle4639"
       style="fill:#ffffff;fill-opacity:1;stroke:none;stroke-width:2;stroke-linecap:round;stroke-linejoin:round;stroke-miterlimit:4;stroke-dasharray:none;stroke-dashoffset:0;stroke-opacity:1" />
    <path
       id="path4652"
       d="m -182.36296,24.383376 -2.4045,3.70985 a 31.805075,31.805075 0 0 0 -1.18649,-0.05943 31.805075,31.805075 0 0 0 -1.96629,0.06977 l -2.4629,-3.580143 a 35.546847,35.546847 0 0 0 -3.58789,0.639752 l -1.0511,4.215765 a 31.805075,31.805075 0 0 0 -3.01429,1.066086 l -3.51865,-2.606562 a 35.546847,35.546847 0 0 0 -3.14192,1.737363 l 0.3762,4.345472 a 31.805075,31.805075 0 0 0 -2.56108,2.020548 l -4.17443,-1.3224 a 35.546847,35.546847 0 0 0 -2.37401,2.620512 l 1.75028,3.951179 a 31.805075,31.805075 0 0 0 -1.84485,2.844271 l -4.30671,0.10232 a 35.546847,35.546847 0 0 0 -1.37976,3.208589 l 2.87166,3.096453 a 31.805075,31.805075 0 0 0 -0.8413,3.447333 l -4.00802,1.483632 a 35.546847,35.546847 0 0 0 -0.25373,3.404442 l 3.71657,1.993677 a 31.805075,31.805075 0 0 0 0.32969,3.646805 l -3.283,2.683558 a 35.546847,35.546847 0 0 0 0.84646,3.245281 l 4.1212,0.671793 a 31.805075,31.805075 0 0 0 1.54202,3.472138 l -2.20503,3.557923 a 35.546847,35.546847 0 0 0 1.83141,2.740401 l 4.09846,-0.699699 a 31.805075,31.805075 0 0 0 2.65513,2.819982 l -0.93793,4.113962 a 35.546847,35.546847 0 0 0 2.56936,1.953368 l 3.68039,-2.009177 a 31.805075,31.805075 0 0 0 3.47473,1.844331 l 0.4408,4.122745 a 35.546847,35.546847 0 0 0 3.07216,1.016477 l 2.78846,-3.051496 a 31.805075,31.805075 0 0 0 3.92896,0.602549 l 1.74666,3.73724 a 35.546847,35.546847 0 0 0 1.08159,0.05426 35.546847,35.546847 0 0 0 2.14509,-0.07596 l 1.66967,-3.845245 a 31.805075,31.805075 0 0 0 3.86281,-0.703831 l 2.87941,2.981729 a 35.546847,35.546847 0 0 0 3.06855,-1.105876 l 0.32917,-4.154268 a 31.805075,31.805075 0 0 0 3.38533,-1.90686 l 3.67884,1.878955 a 35.546847,35.546847 0 0 0 2.57504,-2.08566 l -1.04283,-4.054018 a 31.805075,31.805075 0 0 0 2.47892,-2.833417 l 4.18165,0.595312 a 35.546847,35.546847 0 0 0 1.76734,-2.84272 l -2.34766,-3.564641 a 31.805075,31.805075 0 0 0 1.38492,-3.355867 l 4.15376,-0.7953 a 35.546847,35.546847 0 0 0 0.77773,-3.341399 l -3.38016,-2.61121 a 31.805075,31.805075 0 0 0 0.22273,-3.520199 l 3.68918,-2.112016 a 35.546847,35.546847 0 0 0 -0.36897,-3.471105 l -4.10414,-1.392164 a 31.805075,31.805075 0 0 0 -0.89866,-3.239595 l 2.85357,-3.251997 a 35.546847,35.546847 0 0 0 -1.48776,-3.222542 l -4.36046,0.01602 a 31.805075,31.805075 0 0 0 -1.84174,-2.699059 l 1.63917,-3.993555 a 35.546847,35.546847 0 0 0 -2.49907,-2.619994 l -4.09329,1.422136 a 31.805075,31.805075 0 0 0 -2.56729,-1.922881 l 0.25477,-4.324284 a 35.546847,35.546847 0 0 0 -3.23236,-1.686203 l -3.44785,2.70423 a 31.805075,31.805075 0 0 0 -2.97811,-0.97255 l -1.18598,-4.253489 a 35.546847,35.546847 0 0 0 -3.57963,-0.551387 z"
       style="fill:#000300;fill-opacity:1;stroke:none;stroke-width:0.5;stroke-miterlimit:4;stroke-dasharray:none;stroke-dashoffset:0;stroke-opacity:1"
       inkscape:connector-curvature="0" />
    <circle
       r="24.321526"
       cy="59.838833"
       cx="-185.95395"
       id="circle4654"
       style="fill:#ffffff;fill-opacity:1;stroke:none;stroke-width:0.59868425;stroke-miterlimit:4;stroke-dasharray:none;stroke-dashoffset:0;stroke-opacity:1" />
    <path
       inkscape:transform-center-y="4.5565604"
       inkscape:transform-center-x="6.4066634"
       inkscape:connector-curvature="0"
       style="fill:#000000;fill-opacity:1;stroke:#ffffff;stroke-width:1;stroke-miterlimit:4;stroke-dasharray:none;stroke-dashoffset:0;stroke-opacity:1"
       d="m -167.87598,53.180685 c -0.016,0.416789 -0.037,0.81159 -0.0641,1.16241 l 3.82846,3.90958 c 1.57466,1.60801 1.54743,4.17056 -0.0606,5.74522 l -2.49836,2.44652 c -1.608,1.57464 -4.17019,1.54779 -5.74484,-0.0602 l -3.82884,-3.90995 c -0.34986,0.0197 -0.74323,0.0326 -1.15826,0.0398 0.0737,2.70636 1.23349,5.40457 3.24906,7.46864 2.65733,2.70775 6.41161,3.93587 9.85221,3.22161 l 12.604,12.87101 c 0.0278,1.89796 0.8359,3.78301 2.23488,5.21334 2.81666,2.87654 7.19945,3.15264 9.78903,0.61667 2.58931,-2.53596 2.40499,-6.92326 -0.41171,-9.79945 -1.40025,-1.42549 -3.26567,-2.27087 -5.16019,-2.33837 l -12.37838,-12.64057 c 1.0791,-3.56247 -0.0271,-7.64602 -2.85428,-10.53613 -2.02106,-2.05944 -4.69349,-3.278247 -7.39808,-3.41013 z m 21.04122,31.77954 a 2.8035595,2.8035595 0 0 1 3.96435,0.0419 2.8035595,2.8035595 0 0 1 -0.0412,3.96435 2.8035595,2.8035595 0 0 1 -3.96472,-0.0416 2.8035595,2.8035595 0 0 1 0.0416,-3.96473 z"
       id="path4656" />
    <flowRoot
       transform="matrix(0.2623515,0.03429325,-0.03429325,0.2623515,-202.83605,-29.52698)"
       style="font-style:normal;font-weight:normal;font-size:40px;line-height:1.25;font-family:sans-serif;letter-spacing:0px;word-spacing:0px;fill:#000000;fill-opacity:1;stroke:none"
       id="flowRoot4664"
       xml:space="preserve"><flowRegion
         id="flowRegion4660"><rect
           y="293.18445"
           x="31.31473"
           height="77.781761"
           width="225.26402"
           id="rect4658" /></flowRegion><flowPara
         style="font-style:normal;font-variant:normal;font-weight:bold;font-stretch:normal;font-size:26.66666794px;font-family:sans-serif;-inkscape-font-specification:'sans-serif Bold'"
         id="flowPara4662">Envconfig</flowPara></flowRoot>    <path
       inkscape:connector-curvature="0"
       id="path4961"
       d="m 256.84538,22.304507 -2.40451,3.70985 a 31.805075,31.805075 0 0 0 -1.18649,-0.05943 31.805075,31.805075 0 0 0 -1.96629,0.06977 l -2.46289,-3.580143 a 35.546847,35.546847 0 0 0 -3.5879,0.639752 l -1.0511,4.215765 a 31.805075,31.805075 0 0 0 -3.01428,1.066082 l -3.51865,-2.606561 a 35.546847,35.546847 0 0 0 -3.14193,1.737363 l 0.3762,4.345471 a 31.805075,31.805075 0 0 0 -2.56108,2.020549 l -4.17442,-1.322401 a 35.546847,35.546847 0 0 0 -2.37402,2.620513 l 1.75028,3.951179 a 31.805075,31.805075 0 0 0 -1.84485,2.844271 l -4.30671,0.102319 a 35.546847,35.546847 0 0 0 -1.37976,3.208589 l 2.87166,3.096453 a 31.805075,31.805075 0 0 0 -0.84129,3.447333 l -4.00803,1.483631 a 35.546847,35.546847 0 0 0 -0.25373,3.40444 l 3.71657,1.99368 a 31.805075,31.805075 0 0 0 0.3297,3.64681 l -3.28301,2.68355 a 35.546847,35.546847 0 0 0 0.84646,3.24528 l 4.1212,0.6718 a 31.805075,31.805075 0 0 0 1.54202,3.47214 l -2.20503,3.55792 a 35.546847,35.546847 0 0 0 1.83141,2.7404 l 4.09846,-0.6997 a 31.805075,31.805075 0 0 0 2.65514,2.81998 l -0.93793,4.11396 a 35.546847,35.546847 0 0 0 2.56935,1.95337 l 3.6804,-2.00917 a 31.805075,31.805075 0 0 0 3.47472,1.84433 l 0.4408,4.12274 a 35.546847,35.546847 0 0 0 3.07216,1.01648 l 2.78846,-3.0515 a 31.805075,31.805075 0 0 0 3.92896,0.60255 l 1.74667,3.73724 a 35.546847,35.546847 0 0 0 1.08158,0.0543 35.546847,35.546847 0 0 0 2.14509,-0.076 l 1.66967,-3.84525 a 31.805075,31.805075 0 0 0 3.86281,-0.70383 l 2.87941,2.98173 a 35.546847,35.546847 0 0 0 3.06855,-1.10588 l 0.32918,-4.15426 a 31.805075,31.805075 0 0 0 3.38532,-1.90686 l 3.67885,1.87895 a 35.546847,35.546847 0 0 0 2.57504,-2.08566 l -1.04283,-4.05402 a 31.805075,31.805075 0 0 0 2.47891,-2.83341 l 2.28824,0.32556 -5.87613,-6.00015 c -0.53624,0.0943 -1.07798,0.14014 -1.62057,0.14934 a 24.321525,24.321525 0 0 1 -19.83084,10.29601 24.321525,24.321525 0 0 1 -24.32151,-24.32202 24.321525,24.321525 0 0 1 24.32151,-24.321518 24.321525,24.321525 0 0 1 23.68952,18.983336 c 0.76725,0.490685 1.48774,1.073272 2.1425,1.740462 h 0.002 c 2.86391,2.92765 4.0044,7.0328 3.02358,10.70891 l 2.88252,2.944 2.43912,-0.46715 a 35.546847,35.546847 0 0 0 0.77774,-3.3414 l -3.38016,-2.61121 a 31.805075,31.805075 0 0 0 0.22272,-3.5202 l 3.68918,-2.11201 a 35.546847,35.546847 0 0 0 -0.36896,-3.471109 l -4.10415,-1.392163 a 31.805075,31.805075 0 0 0 -0.89865,-3.239596 l 2.85357,-3.251996 a 35.546847,35.546847 0 0 0 -1.48776,-3.222543 l -4.36046,0.01602 a 31.805075,31.805075 0 0 0 -1.84175,-2.69906 l 1.63918,-3.993554 a 35.546847,35.546847 0 0 0 -2.49907,-2.619994 l -4.09329,1.422135 a 31.805075,31.805075 0 0 0 -2.56729,-1.92288 l 0.25477,-4.324284 a 35.546847,35.546847 0 0 0 -3.23236,-1.686203 l -3.44786,2.704229 a 31.805075,31.805075 0 0 0 -2.97811,-0.97255 l -1.18598,-4.253489 a 35.546847,35.546847 0 0 0 -3.57962,-0.551386 z m -22.21673,28.349172 -0.66663,5.100463 3.62459,0.47336 0.1297,-0.99374 -2.30942,-0.30179 0.15297,-1.1684 2.10064,0.2744 0.13023,-0.99374 -2.10117,-0.274918 0.12454,-0.949814 2.23398,0.292488 0.1297,-0.994253 z m 37.17086,1.070221 v 5.16e-4 c -0.006,0.115533 -0.0126,0.235995 -0.0196,0.345715 l 3.67368,3.753781 c 1.76243,1.79979 1.73155,4.69042 -0.0682,6.45283 l -2.49803,2.44533 c -1.79973,1.7624 -4.68889,1.73357 -6.45129,-0.0662 l -3.67575,-3.75377 c -0.10911,0.005 -0.22878,0.007 -0.34365,0.0114 0.19052,2.40455 1.19114,4.79245 2.9962,6.64094 2.54538,2.59366 6.13416,3.75835 9.3922,3.08198 l 0.26768,-0.0568 12.93565,13.20902 0.002,0.20102 c 0.0258,1.76093 0.7812,3.5294 2.09393,4.87153 2.64645,2.70273 6.70649,2.93523 9.08162,0.60927 2.37453,-2.3256 2.22573,-6.38956 -0.41962,-9.09195 -1.31393,-1.33762 -3.06264,-2.12693 -4.82037,-2.18953 l -0.20102,-0.008 -12.72481,-12.99404 0.0858,-0.28319 c 1.02075,-3.36981 -0.0248,-7.2729 -2.73214,-10.04125 -1.80945,-1.843805 -4.17507,-2.895929 -6.57427,-3.138822 z m -32.613,0.821653 -0.50023,3.826119 1.22318,0.15969 0.24598,-1.88206 c 0.0455,-0.34844 0.15369,-0.61127 0.32505,-0.78807 0.17164,-0.17907 0.3852,-0.25193 0.64027,-0.21859 0.10475,0.0137 0.19527,0.0486 0.2713,0.10491 0.0763,0.054 0.13312,0.12384 0.17053,0.2098 0.0287,0.064 0.0415,0.15977 0.0388,0.28681 -4.3e-4,0.12734 -0.022,0.35604 -0.0651,0.68626 l -0.18345,1.40405 -0.0496,0.37879 1.2299,0.16123 0.30437,-2.33009 c 0.0676,-0.51696 0.004,-0.92573 -0.19068,-1.2268 -0.19232,-0.300776 -0.50904,-0.480203 -0.95085,-0.537953 -0.25051,-0.03275 -0.48674,-0.0092 -0.70797,0.0708 -0.22093,0.07767 -0.438,0.215892 -0.65164,0.414963 l 0.0734,-0.560174 z m 4.49895,0.588079 1.00304,4.02249 1.34255,0.17519 2.0066,-3.62872 -1.2268,-0.1602 -1.29501,2.51974 -0.60772,-2.76882 z m 6.4766,0.78652 c -0.46987,0.006 -0.86785,0.12364 -1.19475,0.35191 -0.43557,0.30209 -0.69476,0.76857 -0.77722,1.3994 -0.0825,0.63083 0.0477,1.14929 0.39068,1.55546 0.34328,0.40389 0.86025,0.65084 1.55029,0.74104 0.19813,0.0259 0.39728,0.0336 0.59789,0.0227 0.2026,-0.008 0.40409,-0.035 0.60462,-0.0806 l 0.13074,-1.00097 c -0.16034,0.0925 -0.33056,0.15586 -0.51108,0.19017 -0.17824,0.0346 -0.36319,0.0395 -0.55449,0.0145 -0.3416,-0.0447 -0.59476,-0.17839 -0.76016,-0.40153 -0.16282,-0.22511 -0.22088,-0.51682 -0.17415,-0.87436 0.0467,-0.35755 0.17731,-0.62291 0.39223,-0.79634 0.21749,-0.1754 0.4971,-0.2405 0.83871,-0.19585 0.17991,0.0235 0.34939,0.0735 0.50849,0.14986 0.16138,0.0767 0.31786,0.18273 0.46922,0.31833 l 0.13023,-0.99736 c -0.18435,-0.0959 -0.37241,-0.17381 -0.56379,-0.23357 -0.18881,-0.0617 -0.38302,-0.10558 -0.58343,-0.13178 -0.17251,-0.0225 -0.3374,-0.0331 -0.49403,-0.031 z m 13.93869,0.38602 c -0.3226,-0.004 -0.58077,0.058 -0.77463,0.18552 -0.25819,0.16776 -0.41475,0.46019 -0.46922,0.87695 l -0.0346,0.26613 -0.60152,-0.0786 -0.1142,0.87488 0.601,0.0785 -0.38551,2.95124 1.233,0.16123 0.38602,-2.95124 1.38338,0.18087 -0.38602,2.95124 1.23351,0.16123 0.50023,-3.82612 -2.61689,-0.3421 0.0346,-0.26613 c 0.0202,-0.15486 0.0675,-0.25876 0.14159,-0.31161 0.0744,-0.0551 0.19714,-0.0714 0.36794,-0.0491 l 0.67644,0.0884 0.1049,-0.80305 -0.93637,-0.12196 c -0.12184,-0.0159 -0.23612,-0.025 -0.34365,-0.0264 z m -9.86607,0.14624 c -0.45023,0.009 -0.83279,0.12828 -1.14773,0.35812 -0.41765,0.30674 -0.66766,0.77446 -0.74982,1.40302 -0.0822,0.62855 0.039,1.14495 0.3638,1.54874 0.32704,0.40409 0.82113,0.64903 1.48156,0.73535 0.65815,0.086 1.19487,-0.0242 1.61024,-0.33124 0.41765,-0.30675 0.66714,-0.77447 0.74931,-1.40302 0.0822,-0.62855 -0.039,-1.14495 -0.36381,-1.54874 -0.32249,-0.40349 -0.81255,-0.64829 -1.47071,-0.73432 -0.1651,-0.0216 -0.32276,-0.0309 -0.47284,-0.0279 z m 11.39879,0.0351 -0.13022,0.99736 1.233,0.16123 0.13022,-0.99736 z m -7.95249,0.47543 -0.50022,3.82612 1.22318,0.15968 0.24598,-1.88206 c 0.0455,-0.34843 0.15369,-0.61126 0.32504,-0.78806 0.17165,-0.17908 0.38521,-0.25193 0.64027,-0.21859 0.10476,0.0137 0.19527,0.0486 0.27131,0.1049 0.0763,0.054 0.13312,0.12385 0.17053,0.20981 0.0287,0.064 0.0415,0.15976 0.0388,0.2868 -4.3e-4,0.12733 -0.022,0.35605 -0.0651,0.68626 l -0.18345,1.40405 -0.0496,0.37931 1.22938,0.16071 0.30489,-2.33009 c 0.0676,-0.51696 0.004,-0.92573 -0.19069,-1.2268 -0.19231,-0.30077 -0.50955,-0.4802 -0.95136,-0.53795 -0.25051,-0.0327 -0.48622,-0.009 -0.70745,0.0708 -0.22093,0.0777 -0.438,0.21589 -0.65164,0.41496 l 0.0729,-0.56017 z m -3.28145,0.3855 c 0.0614,-0.004 0.12552,-0.002 0.19327,0.007 0.26645,0.0348 0.4575,0.15931 0.57309,0.37362 0.1159,0.21203 0.15025,0.50151 0.10232,0.86816 -0.0479,0.36666 -0.15566,0.63858 -0.32246,0.81598 -0.1665,0.17512 -0.3826,0.24515 -0.64905,0.21032 -0.27101,-0.0354 -0.46578,-0.15923 -0.58395,-0.37156 -0.11559,-0.2143 -0.14921,-0.50512 -0.10128,-0.87178 0.0479,-0.36665 0.15493,-0.63723 0.32142,-0.81235 0.12681,-0.13282 0.2825,-0.20583 0.46664,-0.21911 z m 14.62857,1.01958 c -0.39606,-0.011 -0.74834,0.12646 -1.0573,0.41237 -0.35279,0.32449 -0.56659,0.77249 -0.6413,1.34411 -0.0744,0.56934 0.0169,1.05879 0.27388,1.46761 0.25724,0.40654 0.61938,0.64022 1.08624,0.70125 0.26645,0.0348 0.50761,0.0131 0.72399,-0.0651 0.21637,-0.0783 0.42345,-0.21795 0.62115,-0.4191 l -0.0341,0.26303 c -0.0488,0.37349 -0.17842,0.63557 -0.38809,0.78652 -0.20966,0.15095 -0.51489,0.20019 -0.91571,0.14779 -0.20724,-0.0271 -0.40924,-0.0848 -0.60616,-0.17311 -0.19722,-0.086 -0.39473,-0.20458 -0.59273,-0.35554 l -0.12454,0.95344 c 0.21563,0.10462 0.4327,0.18966 0.65112,0.25528 0.21842,0.0656 0.44714,0.11395 0.68627,0.14521 0.73786,0.0964 1.32159,0.007 1.75131,-0.2682 0.4317,-0.27248 0.68754,-0.71579 0.76791,-1.33067 l 0.44959,-3.4401 -1.22939,-0.16071 -0.0744,0.56688 c -0.13905,-0.24748 -0.30297,-0.43667 -0.49196,-0.56792 -0.18899,-0.13125 -0.41671,-0.21425 -0.68316,-0.24908 -0.0584,-0.008 -0.11602,-0.0124 -0.1726,-0.0139 z m 0.33021,0.94878 c 0.0577,-0.004 0.11819,-0.003 0.18139,0.006 0.25506,0.0333 0.44131,0.15292 0.5581,0.35812 0.11679,0.2052 0.15266,0.4785 0.108,0.82011 -0.0444,0.33932 -0.1491,0.5929 -0.3147,0.76119 -0.16561,0.16828 -0.37643,0.23591 -0.63149,0.20257 -0.2619,-0.0342 -0.44911,-0.15001 -0.56224,-0.34778 -0.11283,-0.20005 -0.14661,-0.4756 -0.10077,-0.82631 0.0447,-0.3416 0.15014,-0.59652 0.31574,-0.76481 0.12421,-0.12621 0.27273,-0.1958 0.44597,-0.20877 z m 25.0114,24.26828 c 0.84638,0.009 1.68983,0.33895 2.32595,0.98857 1.27232,1.29919 1.25045,3.3996 -0.0486,4.67207 -1.29938,1.27248 -3.39968,1.25035 -4.67207,-0.0491 -1.27249,-1.29937 -1.25035,-3.39969 0.0491,-4.67207 0.64971,-0.63604 1.49921,-0.94848 2.3456,-0.93948 z"
       style="fill:#000300;fill-opacity:1;stroke:none;stroke-width:0.5;stroke-miterlimit:4;stroke-dasharray:none;stroke-dashoffset:0;stroke-opacity:1" />
  </g>
</svg>
